<svg width="352" height="352" viewBox="0 0 352 352" fill="none" xmlns="http://www.w3.org/2000/svg">
<circle cx="176" cy="176" r="176" fill="#FDA05D"/>
<path fill-rule="evenodd" clip-rule="evenodd" d="M168 317C241.454 317 301 257.454 301 184C301 110.546 241.454 51 168 51C94.5461 51 35 110.546 35 184C35 210.614 42.8169 235.402 56.28 256.193V295.72H95.8068C116.598 309.183 141.386 317 168 317Z" fill="black" fill-opacity="0.06"/>
<path fill-rule="evenodd" clip-rule="evenodd" d="M176 309C249.454 309 309 249.454 309 176C309 102.546 249.454 43 176 43C102.546 43 43 102.546 43 176C43 202.614 50.8169 227.402 64.28 248.193V287.72H103.807C124.598 301.183 149.386 309 176 309Z" fill="white"/>
<path fill-rule="evenodd" clip-rule="evenodd" d="M287.72 179.928C287.718 181.557 287.681 183.178 287.611 184.791C287.432 188.876 283.971 191.959 279.882 191.959H266C261.759 191.959 258.46 188.311 258.46 184.069V184.069C258.46 138.999 223.428 101.952 178.609 97.6845C174.235 97.268 170.68 93.734 170.68 89.3405V72.3278C170.68 67.8909 174.303 64.274 178.728 64.5938C239.617 68.9937 287.635 118.79 287.72 179.603V179.928Z" fill="#FDA05D"/>
<path fill-rule="evenodd" clip-rule="evenodd" d="M237.749 185.118V185.118C237.74 189.016 234.421 191.959 230.523 191.959H225.302C222.872 191.959 220.982 189.868 220.982 187.438V187.438C220.982 162.748 202.636 142.26 178.583 138.367C174.246 137.665 170.68 134.159 170.68 129.766V126.841C170.68 122.405 174.307 118.767 178.711 119.306C211.948 123.377 237.675 151.148 237.749 184.826V185.118Z" fill="#FDA05D"/>
</svg>
